<svg width="138.616669" height="43.880554" viewBox="0 0 138.617 43.8806" fill="none" xmlns="http://www.w3.org/2000/svg" xmlns:xlink="http://www.w3.org/1999/xlink">
	<desc>
			Created with Pixso.
	</desc>
	<defs/>
	<path id="Vector" d="M138.11 0.5L138.11 43.38L0.5 43.38L0.5 0.5L138.11 0.5Z" stroke="#FFFFFF" stroke-opacity="1.000000" stroke-width="1.000000" stroke-linejoin="round"/>
	<path id="Vector" d="M34.85 34.17L34.74 34.17C34.13 34.17 33.62 33.67 33.58 33.03C33.53 32.37 34.02 31.79 34.66 31.74C34.69 31.74 34.72 31.74 34.74 31.74C35.36 31.74 35.87 32.23 35.92 32.85C35.93 33.1 35.89 33.46 35.64 33.75L35.63 33.75L35.62 33.76C35.43 33.99 35.16 34.13 34.85 34.17ZM21.16 34.16C20.51 34.16 19.98 33.62 19.98 32.96C19.98 32.29 20.51 31.75 21.16 31.75C21.81 31.75 22.34 32.29 22.34 32.96C22.34 33.62 21.81 34.16 21.16 34.16Z" fill="#FFFFFF" fill-opacity="1.000000" fill-rule="nonzero"/>
	<path id="Vector" d="M34.78 33.17C34.82 33.16 34.84 33.14 34.86 33.12C34.87 33.11 34.88 33.1 34.88 33.09C34.92 33.05 34.92 32.96 34.92 32.92C34.91 32.81 34.82 32.74 34.74 32.74C34.74 32.74 34.73 32.74 34.73 32.74C34.65 32.74 34.57 32.85 34.57 32.97C34.58 33.08 34.67 33.17 34.74 33.17L34.78 33.17ZM21.16 33.16C21.26 33.16 21.34 33.07 21.34 32.95C21.34 32.84 21.26 32.75 21.16 32.75C21.06 32.75 20.98 32.84 20.98 32.95C20.98 33.07 21.06 33.16 21.16 33.16ZM34.9 35.16C34.85 35.16 34.79 35.16 34.74 35.16C33.61 35.16 32.66 34.26 32.58 33.1C32.5 31.9 33.4 30.83 34.6 30.75C34.65 30.74 34.69 30.74 34.74 30.74C35.88 30.74 36.84 31.64 36.91 32.79C36.94 33.4 36.77 33.96 36.39 34.4C36 34.86 35.47 35.12 34.9 35.16ZM21.16 35.16C19.96 35.16 18.98 34.17 18.98 32.95C18.98 31.74 19.96 30.75 21.16 30.75C22.36 30.75 23.33 31.74 23.33 32.95C23.33 34.17 22.36 35.16 21.16 35.16ZM34.1 28.31L22.07 28.31C21.64 28.31 21.25 28.02 21.14 27.6L17.23 13.21L14.48 13.21C13.95 13.21 13.52 12.77 13.52 12.23C13.52 11.7 13.95 11.26 14.48 11.26L17.95 11.26C18.38 11.26 18.76 11.55 18.87 11.97L22.79 26.36L33.46 26.36L37.01 18.08L25.19 18.08C24.66 18.08 24.23 17.64 24.23 17.11C24.23 16.57 24.66 16.13 25.19 16.13L38.48 16.13C38.8 16.13 39.1 16.29 39.28 16.57C39.45 16.85 39.49 17.19 39.36 17.49L34.98 27.73C34.82 28.08 34.48 28.31 34.1 28.31Z" fill="#FFFFFF" fill-opacity="1.000000" fill-rule="nonzero"/>
	<path id="Vector" d="M34.78 33.17C34.82 33.16 34.84 33.14 34.86 33.12C34.87 33.11 34.88 33.1 34.88 33.09C34.92 33.05 34.92 32.96 34.92 32.92C34.91 32.81 34.82 32.74 34.74 32.74C34.74 32.74 34.73 32.74 34.73 32.74C34.65 32.74 34.57 32.85 34.57 32.97C34.58 33.08 34.67 33.17 34.74 33.17L34.78 33.17ZM21.16 33.16C21.26 33.16 21.34 33.07 21.34 32.95C21.34 32.84 21.26 32.75 21.16 32.75C21.06 32.75 20.98 32.84 20.98 32.95C20.98 33.07 21.06 33.16 21.16 33.16ZM34.9 35.16C34.85 35.16 34.79 35.16 34.74 35.16C33.61 35.16 32.66 34.26 32.58 33.1C32.5 31.9 33.4 30.83 34.6 30.75C34.65 30.74 34.69 30.74 34.74 30.74C35.88 30.74 36.84 31.64 36.91 32.79C36.94 33.4 36.77 33.96 36.39 34.4C36 34.86 35.47 35.12 34.9 35.16ZM21.16 35.16C19.96 35.16 18.98 34.17 18.98 32.95C18.98 31.74 19.96 30.75 21.16 30.75C22.36 30.75 23.33 31.74 23.33 32.95C23.33 34.17 22.36 35.16 21.16 35.16ZM34.1 28.31L22.07 28.31C21.64 28.31 21.25 28.02 21.14 27.6L17.23 13.21L14.48 13.21C13.95 13.21 13.52 12.77 13.52 12.23C13.52 11.7 13.95 11.26 14.48 11.26L17.95 11.26C18.38 11.26 18.76 11.55 18.87 11.97L22.79 26.36L33.46 26.36L37.01 18.08L25.19 18.08C24.66 18.08 24.23 17.64 24.23 17.11C24.23 16.57 24.66 16.13 25.19 16.13L38.48 16.13C38.8 16.13 39.1 16.29 39.28 16.57C39.45 16.85 39.49 17.19 39.36 17.49L34.98 27.73C34.82 28.08 34.48 28.31 34.1 28.31Z" fill="#FFFFFF" fill-opacity="1.000000" fill-rule="nonzero"/>
	<path id="Add to Cart" d="M66.63 28.19L66.63 17.88L65.38 17.88L65.38 21.81Q65.11 21.52 64.79 21.32Q64.67 21.26 64.55 21.2Q64.09 20.98 63.43 20.98Q62.72 20.98 62.15 21.26Q61.86 21.4 61.62 21.6Q61.38 21.79 61.19 22.04Q60.8 22.54 60.58 23.21Q60.38 23.89 60.38 24.67Q60.38 25.55 60.56 26.23Q60.76 26.91 61.1 27.36Q61.36 27.69 61.68 27.9Q61.81 27.99 61.95 28.06Q62.45 28.29 63.06 28.29Q63.78 28.29 64.35 27.99Q64.37 27.97 64.4 27.96Q64.43 27.94 64.46 27.92Q65.01 27.59 65.44 27.07L65.55 27.93Q65.59 28.06 65.67 28.13Q65.75 28.19 65.89 28.19L66.63 28.19ZM74.47 28.19L74.47 17.88L73.22 17.88L73.22 21.81Q72.95 21.52 72.63 21.32Q72.51 21.26 72.39 21.2Q71.93 20.98 71.27 20.98Q70.56 20.98 69.99 21.26Q69.7 21.4 69.46 21.6Q69.22 21.79 69.03 22.04Q68.64 22.54 68.42 23.21Q68.22 23.89 68.22 24.67Q68.22 25.55 68.4 26.23Q68.6 26.91 68.94 27.36Q69.2 27.69 69.52 27.9Q69.65 27.99 69.79 28.06Q70.29 28.29 70.9 28.29Q71.62 28.29 72.19 27.99Q72.21 27.97 72.24 27.96Q72.27 27.94 72.3 27.92Q72.85 27.59 73.28 27.07L73.39 27.93Q73.43 28.06 73.51 28.13Q73.59 28.19 73.73 28.19L74.47 28.19ZM103.95 26.13Q103.91 26.12 103.87 26.12Q103.75 26.12 103.63 26.23Q103.37 26.46 103.11 26.63Q102.85 26.8 102.54 26.92Q102.24 27.03 101.87 27.08Q101.52 27.14 101.07 27.14Q100.41 27.14 99.82 26.92Q99.76 26.9 99.7 26.87Q99.38 26.74 99.11 26.55Q98.84 26.35 98.6 26.1Q98.14 25.59 97.87 24.85Q97.6 24.12 97.6 23.18Q97.6 22.25 97.85 21.52Q98.11 20.79 98.58 20.28Q98.8 20.03 99.06 19.85Q99.35 19.64 99.69 19.5Q100.33 19.23 101.11 19.23Q101.76 19.23 102.2 19.36Q102.64 19.5 102.93 19.67Q103.22 19.83 103.41 19.97Q103.59 20.11 103.71 20.11Q103.83 20.11 103.89 20.06Q103.93 20.04 103.96 20Q103.98 19.98 104 19.94L104.45 19.32Q104.32 19.2 104.17 19.08Q103.65 18.66 103.01 18.39Q102.19 18.05 101.12 18.05Q100.03 18.05 99.12 18.42Q98.46 18.7 97.94 19.13Q97.74 19.29 97.57 19.48Q97.55 19.5 97.53 19.52Q96.91 20.19 96.57 21.1Q96.21 22.05 96.21 23.18Q96.21 24.31 96.55 25.26Q96.89 26.2 97.52 26.88Q97.69 27.07 97.88 27.23Q98.39 27.66 99.02 27.93Q99.91 28.3 100.98 28.3Q102.23 28.3 103.11 27.9Q103.66 27.65 104.11 27.28Q104.37 27.06 104.6 26.79L104.06 26.21Q104.01 26.16 103.95 26.13ZM58.84 28.19L59.89 28.19L55.87 18.16L54.5 18.16L50.49 28.19L51.54 28.19Q51.69 28.19 51.8 28.12Q51.82 28.11 51.83 28.1Q51.95 28 52 27.88Q52 27.87 52 27.87L52.94 25.45L57.44 25.45L58.37 27.87Q58.42 27.98 58.49 28.06Q58.51 28.08 58.54 28.1Q58.65 28.19 58.84 28.19ZM81.02 27.94Q81.46 28.3 82.2 28.3Q82.42 28.3 82.62 28.27Q82.89 28.23 83.14 28.13Q83.59 27.96 83.92 27.66L83.55 27.06Q83.48 26.96 83.4 26.95Q83.39 26.94 83.38 26.94Q83.32 26.94 83.25 27Q83.17 27.05 83.07 27.12Q82.97 27.18 82.82 27.23Q82.68 27.28 82.48 27.28Q82.24 27.28 82.06 27.18Q81.99 27.13 81.92 27.07Q81.7 26.85 81.7 26.4L81.7 22.15L83.76 22.15L83.76 21.24L81.7 21.24L81.7 18.8L81.08 18.8Q80.97 18.8 80.9 18.85Q80.89 18.86 80.88 18.86Q80.86 18.88 80.85 18.9Q80.8 18.95 80.79 19.04L80.5 21.23L79.34 21.37L79.34 21.87Q79.34 22 79.4 22.07Q79.41 22.08 79.41 22.08Q79.44 22.1 79.46 22.11Q79.52 22.15 79.61 22.15L80.46 22.15L80.46 26.48Q80.46 27.34 80.89 27.81Q80.9 27.82 80.91 27.84Q80.96 27.89 81.02 27.94ZM118.93 27.94Q119.37 28.3 120.12 28.3Q120.33 28.3 120.53 28.27Q120.8 28.23 121.05 28.13Q121.51 27.96 121.83 27.66L121.47 27.06Q121.4 26.96 121.31 26.95Q121.3 26.94 121.29 26.94Q121.23 26.94 121.16 27Q121.09 27.05 120.98 27.12Q120.88 27.18 120.73 27.23Q120.59 27.28 120.4 27.28Q120.15 27.28 119.97 27.18Q119.9 27.13 119.83 27.07Q119.62 26.85 119.62 26.4L119.62 22.15L121.67 22.15L121.67 21.24L119.62 21.24L119.62 18.8L118.99 18.8Q118.89 18.8 118.82 18.85Q118.8 18.86 118.79 18.86Q118.78 18.88 118.76 18.9Q118.72 18.95 118.7 19.04L118.41 21.23L117.25 21.37L117.25 21.87Q117.25 22 117.32 22.07Q117.32 22.08 117.33 22.08Q117.35 22.1 117.37 22.11Q117.44 22.15 117.52 22.15L118.37 22.15L118.37 26.48Q118.37 27.34 118.8 27.81Q118.81 27.82 118.82 27.84Q118.88 27.89 118.93 27.94ZM55.48 20.39L57.06 24.47L53.31 24.47L54.89 20.4Q55.04 20.02 55.19 19.45Q55.26 19.72 55.33 19.96Q55.41 20.2 55.48 20.39ZM106.97 21.26Q106.29 21.53 105.7 22.1L105.93 22.5Q105.96 22.56 106.01 22.61Q106.04 22.64 106.08 22.67Q106.1 22.68 106.12 22.69Q106.2 22.73 106.3 22.73Q106.46 22.73 106.62 22.62Q106.79 22.5 107.01 22.36Q107.24 22.21 107.55 22.1Q107.86 21.98 108.33 21.98Q108.86 21.98 109.2 22.24Q109.29 22.31 109.37 22.41Q109.73 22.83 109.73 23.66L109.73 24.21Q108.52 24.24 107.68 24.43Q106.85 24.62 106.33 24.92Q105.81 25.23 105.58 25.61Q105.41 25.9 105.37 26.2Q105.35 26.31 105.35 26.42Q105.35 26.9 105.51 27.26Q105.65 27.58 105.88 27.8Q105.91 27.82 105.94 27.84Q105.95 27.85 105.96 27.86Q106.22 28.08 106.57 28.19Q106.93 28.3 107.35 28.3Q107.75 28.3 108.09 28.23Q108.42 28.16 108.71 28.02Q109.01 27.88 109.27 27.69Q109.54 27.48 109.82 27.22L109.96 27.9Q110.01 28.07 110.11 28.13Q110.21 28.19 110.39 28.19L110.94 28.19L110.94 23.66Q110.94 23.06 110.78 22.57Q110.62 22.07 110.31 21.72Q110.25 21.65 110.18 21.59Q109.9 21.33 109.53 21.17Q109.07 20.98 108.48 20.98Q107.65 20.98 106.97 21.26ZM114.85 21.39Q114.36 21.79 114.03 22.52L113.94 21.44Q113.91 21.25 113.83 21.18Q113.76 21.1 113.56 21.1L112.84 21.1L112.84 28.19L114.09 28.19L114.09 23.71Q114.23 23.35 114.39 23.06Q114.56 22.78 114.76 22.59Q114.88 22.48 115.01 22.4Q115.12 22.34 115.23 22.3Q115.49 22.2 115.83 22.2Q116.07 22.2 116.26 22.24Q116.45 22.28 116.54 22.28Q116.62 22.28 116.67 22.25Q116.73 22.2 116.76 22.11L116.84 21.18Q116.68 21.07 116.48 21.02Q116.27 20.98 116.05 20.98Q115.55 20.98 115.15 21.18Q114.99 21.27 114.85 21.39ZM89.4 21.25Q88.78 20.99 88 20.99Q87.21 20.99 86.59 21.25Q86.15 21.43 85.8 21.72Q85.65 21.84 85.52 21.98Q85.08 22.46 84.84 23.14Q84.61 23.81 84.61 24.64Q84.61 25.48 84.84 26.15Q85.08 26.83 85.52 27.3Q85.64 27.43 85.78 27.55Q86.13 27.85 86.59 28.03Q87.21 28.29 88 28.29Q88.78 28.29 89.4 28.03Q89.84 27.85 90.18 27.57Q90.33 27.44 90.46 27.3Q90.9 26.83 91.14 26.15Q91.37 25.48 91.37 24.64Q91.37 23.81 91.14 23.14Q90.9 22.46 90.46 21.98Q90.32 21.83 90.16 21.7Q89.82 21.42 89.4 21.25ZM64.62 22.14Q65.03 22.32 65.38 22.79L65.38 26.21Q65 26.72 64.54 27Q64.52 27.02 64.49 27.03Q64.05 27.28 63.46 27.28Q63.03 27.28 62.7 27.14Q62.62 27.1 62.55 27.06Q62.31 26.91 62.13 26.67Q61.9 26.35 61.78 25.86Q61.66 25.37 61.66 24.67Q61.66 23.36 62.19 22.65Q62.39 22.4 62.64 22.23Q63.09 21.95 63.72 21.95Q64.22 21.95 64.62 22.14ZM72.46 22.14Q72.87 22.32 73.22 22.79L73.22 26.21Q72.84 26.72 72.38 27Q72.36 27.02 72.33 27.03Q71.89 27.28 71.3 27.28Q70.87 27.28 70.54 27.14Q70.46 27.1 70.39 27.06Q70.15 26.91 69.97 26.67Q69.74 26.35 69.62 25.86Q69.5 25.37 69.5 24.67Q69.5 23.36 70.03 22.65Q70.23 22.4 70.48 22.23Q70.93 21.95 71.56 21.95Q72.06 21.95 72.46 22.14ZM89.23 26.96Q88.75 27.32 88 27.32Q87.22 27.32 86.73 26.94Q86.55 26.8 86.41 26.61Q85.89 25.91 85.89 24.65Q85.89 24.02 86.02 23.52Q86.15 23.02 86.41 22.68Q86.54 22.51 86.7 22.38Q86.87 22.25 87.07 22.15Q87.47 21.97 88 21.97Q88.74 21.97 89.22 22.33Q89.42 22.47 89.57 22.68Q90.09 23.38 90.09 24.65Q90.09 25.91 89.57 26.61Q89.42 26.81 89.23 26.96ZM108.26 25.14Q108.86 25.03 109.73 25L109.73 26.47Q109.52 26.69 109.3 26.87Q109.08 27.04 108.83 27.17Q108.59 27.3 108.32 27.36Q108.05 27.43 107.72 27.43Q107.47 27.43 107.26 27.37Q107.05 27.31 106.9 27.19Q106.9 27.18 106.89 27.18Q106.87 27.17 106.86 27.15Q106.72 27.03 106.64 26.85Q106.55 26.64 106.55 26.36Q106.55 26.21 106.59 26.07Q106.64 25.95 106.72 25.83Q106.89 25.59 107.27 25.42Q107.65 25.25 108.26 25.14Z" fill="#FFFFFF" fill-opacity="1.000000" fill-rule="evenodd"/>
</svg>
