<svg width="360.000031" height="420.000000" viewBox="0 0 360 420" fill="none" xmlns="http://www.w3.org/2000/svg" xmlns:xlink="http://www.w3.org/1999/xlink">
	<desc>
			Created with Pixso.
	</desc>
	<defs/>
	<path id="Rectangle 15 copy" d="M0 0L360 0L360 420L0 420L0 0Z" fill="#3A3838" fill-opacity="0.860000" fill-rule="evenodd"/>
	<path id="Vector" d="M249.5 188.5L249.5 231.5L111.5 231.5L111.5 188.5L249.5 188.5Z" stroke="#FFFFFF" stroke-opacity="1.000000" stroke-width="1.000000" stroke-linejoin="round"/>
	<path id="Vector" d="M145.95 222.26L145.84 222.26C145.23 222.26 144.71 221.76 144.67 221.12C144.63 220.46 145.11 219.87 145.76 219.83C145.78 219.83 145.81 219.83 145.84 219.83C146.45 219.83 146.97 220.32 147.02 220.94C147.03 221.19 146.99 221.55 146.73 221.84L146.73 221.85L146.72 221.85C146.52 222.09 146.26 222.23 145.95 222.26ZM132.22 222.26C131.56 222.26 131.03 221.71 131.03 221.05C131.03 220.38 131.56 219.84 132.22 219.84C132.87 219.84 133.39 220.38 133.39 221.05C133.39 221.71 132.87 222.26 132.22 222.26Z" fill="#FFFFFF" fill-opacity="1.000000" fill-rule="nonzero"/>
	<path id="Vector" d="M145.87 221.26C145.92 221.25 145.94 221.23 145.96 221.21C145.96 221.2 145.97 221.19 145.98 221.18C146.02 221.14 146.02 221.05 146.02 221.01C146 220.9 145.91 220.83 145.84 220.83C145.83 220.83 145.83 220.83 145.83 220.83C145.75 220.83 145.66 220.94 145.67 221.06C145.68 221.17 145.76 221.26 145.84 221.26L145.87 221.26ZM132.22 221.26C132.31 221.26 132.39 221.16 132.39 221.05C132.39 220.93 132.31 220.84 132.22 220.84C132.12 220.84 132.03 220.93 132.03 221.05C132.03 221.16 132.12 221.26 132.22 221.26ZM146 223.26C145.95 223.26 145.88 223.26 145.84 223.26C144.7 223.26 143.75 222.35 143.67 221.19C143.59 219.99 144.49 218.91 145.69 218.83C145.74 218.83 145.79 218.83 145.84 218.83C146.98 218.83 147.94 219.73 148.02 220.88C148.05 221.49 147.87 222.06 147.49 222.5C147.1 222.95 146.57 223.21 146 223.26ZM132.22 223.26C131.01 223.26 130.03 222.27 130.03 221.05C130.03 219.82 131.01 218.84 132.22 218.84C133.42 218.84 134.39 219.82 134.39 221.05C134.39 222.27 133.42 223.26 132.22 223.26ZM145.19 216.39L133.13 216.39C132.7 216.39 132.31 216.1 132.2 215.67L128.27 201.24L125.52 201.24C124.99 201.24 124.56 200.8 124.56 200.27C124.56 199.73 124.99 199.29 125.52 199.29L129 199.29C129.43 199.29 129.81 199.58 129.92 200.01L133.85 214.43L144.55 214.43L148.11 206.13L136.25 206.13C135.72 206.13 135.29 205.69 135.29 205.15C135.29 204.61 135.72 204.17 136.25 204.17L149.58 204.17C149.91 204.17 150.21 204.34 150.39 204.61C150.56 204.89 150.59 205.23 150.47 205.54L146.08 215.8C145.92 216.16 145.58 216.39 145.19 216.39Z" fill="#FFFFFF" fill-opacity="1.000000" fill-rule="nonzero"/>
	<path id="Vector" d="M145.87 221.26C145.92 221.25 145.94 221.23 145.96 221.21C145.96 221.2 145.97 221.19 145.98 221.18C146.02 221.14 146.02 221.05 146.02 221.01C146 220.9 145.91 220.83 145.84 220.83C145.83 220.83 145.83 220.83 145.83 220.83C145.75 220.83 145.66 220.94 145.67 221.06C145.68 221.17 145.76 221.26 145.84 221.26L145.87 221.26ZM132.22 221.26C132.31 221.26 132.39 221.16 132.39 221.05C132.39 220.93 132.31 220.84 132.22 220.84C132.12 220.84 132.03 220.93 132.03 221.05C132.03 221.16 132.12 221.26 132.22 221.26ZM146 223.26C145.95 223.26 145.88 223.26 145.84 223.26C144.7 223.26 143.75 222.35 143.67 221.19C143.59 219.99 144.49 218.91 145.69 218.83C145.74 218.83 145.79 218.83 145.84 218.83C146.98 218.83 147.94 219.73 148.02 220.88C148.05 221.49 147.87 222.06 147.49 222.5C147.1 222.95 146.57 223.21 146 223.26ZM132.22 223.26C131.01 223.26 130.03 222.27 130.03 221.05C130.03 219.82 131.01 218.84 132.22 218.84C133.42 218.84 134.39 219.82 134.39 221.05C134.39 222.27 133.42 223.26 132.22 223.26ZM145.19 216.39L133.13 216.39C132.7 216.39 132.31 216.1 132.2 215.67L128.27 201.24L125.52 201.24C124.99 201.24 124.56 200.8 124.56 200.27C124.56 199.73 124.99 199.29 125.52 199.29L129 199.29C129.43 199.29 129.81 199.58 129.92 200.01L133.85 214.43L144.55 214.43L148.11 206.13L136.25 206.13C135.72 206.13 135.29 205.69 135.29 205.15C135.29 204.61 135.72 204.17 136.25 204.17L149.58 204.17C149.91 204.17 150.21 204.34 150.39 204.61C150.56 204.89 150.59 205.23 150.47 205.54L146.08 215.8C145.92 216.16 145.58 216.39 145.19 216.39Z" fill="#FFFFFF" fill-opacity="1.000000" fill-rule="nonzero"/>
	<path id="Add to Cart" d="M177.77 216.23L177.77 205.92L176.52 205.92L176.52 209.85Q176.25 209.56 175.92 209.36Q175.81 209.29 175.69 209.24Q175.23 209.02 174.57 209.02Q173.86 209.02 173.29 209.3Q173 209.44 172.76 209.64Q172.52 209.83 172.32 210.08Q171.93 210.57 171.72 211.25Q171.51 211.92 171.51 212.71Q171.51 213.59 171.7 214.27Q171.89 214.95 172.24 215.4Q172.49 215.73 172.82 215.94Q172.95 216.03 173.09 216.09Q173.59 216.33 174.2 216.33Q174.92 216.33 175.48 216.03Q175.51 216.01 175.54 215.99Q175.57 215.98 175.6 215.96Q176.14 215.63 176.58 215.11L176.69 215.97Q176.72 216.1 176.81 216.17Q176.89 216.23 177.02 216.23L177.77 216.23ZM185.61 216.23L185.61 205.92L184.36 205.92L184.36 209.85Q184.09 209.56 183.76 209.36Q183.65 209.29 183.53 209.24Q183.07 209.02 182.41 209.02Q181.7 209.02 181.13 209.3Q180.84 209.44 180.6 209.64Q180.36 209.83 180.16 210.08Q179.77 210.57 179.56 211.25Q179.35 211.92 179.35 212.71Q179.35 213.59 179.54 214.27Q179.73 214.95 180.08 215.4Q180.33 215.73 180.66 215.94Q180.79 216.03 180.93 216.09Q181.43 216.33 182.04 216.33Q182.76 216.33 183.32 216.03Q183.35 216.01 183.38 215.99Q183.41 215.98 183.44 215.96Q183.98 215.63 184.42 215.11L184.53 215.97Q184.56 216.1 184.65 216.17Q184.73 216.23 184.86 216.23L185.61 216.23ZM215.09 214.17Q215.05 214.16 215.01 214.16Q214.89 214.16 214.77 214.27Q214.51 214.5 214.25 214.67Q213.98 214.84 213.68 214.96Q213.37 215.07 213.01 215.12Q212.65 215.17 212.21 215.17Q211.54 215.17 210.96 214.96Q210.9 214.93 210.84 214.91Q210.52 214.78 210.25 214.59Q209.97 214.39 209.74 214.14Q209.27 213.63 209 212.89Q208.73 212.16 208.73 211.22Q208.73 210.29 208.99 209.56Q209.25 208.82 209.72 208.31Q209.94 208.07 210.2 207.88Q210.49 207.68 210.83 207.54Q211.47 207.27 212.25 207.27Q212.89 207.27 213.33 207.4Q213.77 207.54 214.07 207.71Q214.36 207.87 214.54 208.01Q214.72 208.15 214.85 208.15Q214.96 208.15 215.03 208.1Q215.07 208.08 215.1 208.04Q215.12 208.02 215.14 207.98L215.59 207.36Q215.45 207.24 215.31 207.12Q214.79 206.7 214.14 206.43Q213.33 206.09 212.25 206.09Q211.16 206.09 210.26 206.46Q209.6 206.74 209.08 207.17Q208.88 207.33 208.71 207.52Q208.69 207.54 208.67 207.56Q208.05 208.22 207.7 209.14Q207.35 210.08 207.35 211.22Q207.35 212.35 207.69 213.3Q208.03 214.24 208.65 214.92Q208.83 215.11 209.02 215.27Q209.52 215.7 210.16 215.97Q211.04 216.34 212.12 216.34Q213.37 216.34 214.25 215.94Q214.8 215.69 215.24 215.32Q215.51 215.1 215.74 214.83L215.2 214.25Q215.15 214.19 215.09 214.17ZM169.98 216.23L171.03 216.23L167.01 206.2L165.64 206.2L161.63 216.23L162.68 216.23Q162.83 216.23 162.94 216.16Q162.95 216.15 162.97 216.13Q163.09 216.04 163.14 215.91Q163.14 215.91 163.14 215.91L164.07 213.49L168.57 213.49L169.51 215.91Q169.56 216.02 169.63 216.09Q169.65 216.12 169.68 216.14Q169.79 216.23 169.98 216.23ZM192.16 215.98Q192.6 216.34 193.34 216.34Q193.55 216.34 193.76 216.31Q194.02 216.27 194.28 216.17Q194.73 216 195.05 215.7L194.69 215.1Q194.62 215 194.54 214.98Q194.53 214.98 194.52 214.98Q194.46 214.98 194.38 215.04Q194.31 215.09 194.21 215.15Q194.1 215.22 193.96 215.27Q193.82 215.32 193.62 215.32Q193.38 215.32 193.2 215.22Q193.12 215.17 193.06 215.11Q192.84 214.89 192.84 214.44L192.84 210.18L194.89 210.18L194.89 209.28L192.84 209.28L192.84 206.84L192.21 206.84Q192.11 206.84 192.04 206.89Q192.03 206.89 192.02 206.9Q192 206.92 191.99 206.94Q191.94 206.99 191.93 207.07L191.64 209.26L190.48 209.41L190.48 209.91Q190.48 210.04 190.54 210.11Q190.55 210.11 190.55 210.12Q190.57 210.14 190.6 210.15Q190.66 210.18 190.74 210.18L191.6 210.18L191.6 214.52Q191.6 215.38 192.03 215.85Q192.04 215.86 192.05 215.88Q192.1 215.93 192.16 215.98ZM230.07 215.98Q230.51 216.34 231.25 216.34Q231.47 216.34 231.67 216.31Q231.94 216.27 232.19 216.17Q232.64 216 232.97 215.7L232.6 215.1Q232.53 215 232.45 214.98Q232.44 214.98 232.43 214.98Q232.37 214.98 232.3 215.04Q232.22 215.09 232.12 215.15Q232.02 215.22 231.87 215.27Q231.73 215.32 231.53 215.32Q231.29 215.32 231.11 215.22Q231.04 215.17 230.97 215.11Q230.75 214.89 230.75 214.44L230.75 210.18L232.81 210.18L232.81 209.28L230.75 209.28L230.75 206.84L230.13 206.84Q230.02 206.84 229.95 206.89Q229.94 206.89 229.93 206.9Q229.91 206.92 229.9 206.94Q229.85 206.99 229.84 207.07L229.55 209.26L228.39 209.41L228.39 209.91Q228.39 210.04 228.45 210.11Q228.46 210.11 228.46 210.12Q228.49 210.14 228.51 210.15Q228.58 210.18 228.66 210.18L229.51 210.18L229.51 214.52Q229.51 215.38 229.94 215.85Q229.95 215.86 229.96 215.88Q230.01 215.93 230.07 215.98ZM166.62 208.42L168.2 212.5L164.45 212.5L166.03 208.43Q166.18 208.05 166.33 207.49Q166.4 207.76 166.47 208Q166.55 208.24 166.62 208.42ZM218.11 209.3Q217.43 209.57 216.84 210.14L217.06 210.54Q217.1 210.6 217.15 210.65Q217.18 210.68 217.22 210.71Q217.24 210.72 217.25 210.73Q217.33 210.77 217.44 210.77Q217.6 210.77 217.76 210.66Q217.92 210.54 218.15 210.4Q218.38 210.25 218.69 210.14Q219 210.02 219.47 210.02Q220 210.02 220.33 210.28Q220.43 210.35 220.51 210.44Q220.86 210.87 220.86 211.69L220.86 212.25Q219.65 212.28 218.82 212.47Q217.99 212.66 217.47 212.96Q216.95 213.26 216.72 213.65Q216.55 213.94 216.51 214.24Q216.49 214.35 216.49 214.46Q216.49 214.94 216.65 215.3Q216.79 215.61 217.02 215.84Q217.05 215.86 217.07 215.88Q217.09 215.89 217.1 215.9Q217.36 216.12 217.71 216.23Q218.07 216.34 218.49 216.34Q218.89 216.34 219.22 216.27Q219.56 216.2 219.85 216.06Q220.14 215.92 220.41 215.72Q220.68 215.52 220.96 215.26L221.1 215.94Q221.15 216.11 221.25 216.17Q221.35 216.23 221.53 216.23L222.08 216.23L222.08 211.69Q222.08 211.1 221.92 210.6Q221.76 210.11 221.45 209.76Q221.38 209.69 221.32 209.62Q221.04 209.37 220.67 209.21Q220.21 209.02 219.61 209.02Q218.79 209.02 218.11 209.3ZM225.99 209.43Q225.5 209.83 225.16 210.56L225.08 209.48Q225.05 209.29 224.97 209.22Q224.9 209.14 224.69 209.14L223.98 209.14L223.98 216.23L225.23 216.23L225.23 211.75Q225.36 211.39 225.53 211.1Q225.7 210.82 225.9 210.63Q226.02 210.52 226.15 210.44Q226.25 210.38 226.37 210.34Q226.63 210.24 226.97 210.24Q227.21 210.24 227.39 210.28Q227.58 210.32 227.68 210.32Q227.76 210.32 227.81 210.29Q227.87 210.24 227.89 210.15L227.98 209.22Q227.82 209.11 227.61 209.06Q227.41 209.02 227.19 209.02Q226.68 209.02 226.29 209.22Q226.13 209.31 225.99 209.43ZM200.54 209.29Q199.91 209.03 199.14 209.03Q198.35 209.03 197.72 209.29Q197.29 209.47 196.94 209.76Q196.79 209.88 196.66 210.02Q196.22 210.5 195.98 211.18Q195.75 211.85 195.75 212.68Q195.75 213.52 195.98 214.19Q196.22 214.87 196.66 215.34Q196.78 215.47 196.91 215.59Q197.27 215.89 197.72 216.07Q198.35 216.33 199.14 216.33Q199.91 216.33 200.54 216.07Q200.97 215.89 201.32 215.61Q201.47 215.48 201.6 215.34Q202.04 214.87 202.27 214.19Q202.51 213.52 202.51 212.68Q202.51 211.85 202.27 211.18Q202.04 210.5 201.6 210.02Q201.46 209.87 201.3 209.74Q200.96 209.46 200.54 209.29ZM175.76 210.17Q176.17 210.36 176.52 210.83L176.52 214.25Q176.14 214.76 175.68 215.04Q175.66 215.05 175.63 215.07Q175.19 215.32 174.6 215.32Q174.17 215.32 173.84 215.17Q173.76 215.14 173.69 215.1Q173.45 214.95 173.27 214.71Q173.04 214.39 172.92 213.9Q172.8 213.4 172.8 212.71Q172.8 211.4 173.33 210.69Q173.53 210.44 173.78 210.27Q174.23 209.99 174.85 209.99Q175.36 209.99 175.76 210.17ZM183.6 210.17Q184.01 210.36 184.36 210.83L184.36 214.25Q183.98 214.76 183.52 215.04Q183.5 215.05 183.47 215.07Q183.03 215.32 182.44 215.32Q182.01 215.32 181.68 215.17Q181.6 215.14 181.53 215.1Q181.29 214.95 181.11 214.71Q180.88 214.39 180.76 213.9Q180.64 213.4 180.64 212.71Q180.64 211.4 181.17 210.69Q181.37 210.44 181.62 210.27Q182.07 209.99 182.69 209.99Q183.2 209.99 183.6 210.17ZM200.37 214.99Q199.89 215.36 199.14 215.36Q198.36 215.36 197.87 214.98Q197.69 214.84 197.55 214.65Q197.03 213.95 197.03 212.69Q197.03 212.06 197.16 211.56Q197.29 211.06 197.55 210.72Q197.68 210.55 197.83 210.42Q198 210.28 198.21 210.19Q198.61 210.01 199.14 210.01Q199.88 210.01 200.36 210.36Q200.55 210.51 200.7 210.71Q201.22 211.42 201.22 212.69Q201.22 213.95 200.7 214.65Q200.56 214.85 200.37 214.99ZM219.4 213.17Q220 213.07 220.86 213.04L220.86 214.51Q220.66 214.73 220.43 214.91Q220.21 215.08 219.97 215.21Q219.73 215.33 219.46 215.4Q219.19 215.47 218.85 215.47Q218.61 215.47 218.4 215.41Q218.19 215.35 218.04 215.23Q218.03 215.22 218.03 215.22Q218.01 215.21 218 215.19Q217.86 215.07 217.78 214.89Q217.69 214.68 217.69 214.4Q217.69 214.25 217.73 214.11Q217.77 213.98 217.86 213.87Q218.03 213.63 218.41 213.46Q218.79 213.28 219.4 213.17Z" fill="#FFFFFF" fill-opacity="1.000000" fill-rule="evenodd"/>
</svg>
