<svg width="45.432129" height="33.745117" viewBox="0 0 45.4321 33.7451" fill="none" xmlns="http://www.w3.org/2000/svg" xmlns:xlink="http://www.w3.org/1999/xlink">
	<desc>
			Created with Pixso.
	</desc>
	<defs/>
	<path id="Forma 1" d="M40.94 8.24C39.76 8.23 38.63 8.68 37.79 9.51C36.95 10.33 36.46 11.45 36.45 12.62C36.45 13.24 36.59 13.85 36.85 14.41C37.11 14.97 37.48 15.47 37.95 15.87L32.29 17.86L24.24 8.5C25.1 8.21 25.85 7.66 26.39 6.93C26.93 6.19 27.22 5.3 27.23 4.39C27.21 3.22 26.72 2.1 25.88 1.28C25.04 0.46 23.92 0 22.74 0C21.57 0 20.44 0.46 19.6 1.28C18.76 2.1 18.28 3.22 18.26 4.39C18.26 5.29 18.55 6.17 19.08 6.9C19.6 7.64 20.34 8.19 21.2 8.49L13.13 17.86L7.47 15.88C7.94 15.47 8.31 14.98 8.57 14.41C8.83 13.85 8.97 13.24 8.97 12.62C9 11.78 8.78 10.94 8.34 10.21C7.91 9.48 7.28 8.89 6.53 8.51C5.77 8.12 4.92 7.96 4.08 8.04C3.24 8.11 2.43 8.43 1.76 8.94C1.08 9.45 0.57 10.15 0.28 10.94C-0.02 11.74 -0.08 12.6 0.09 13.43C0.27 14.26 0.67 15.02 1.26 15.63C1.85 16.24 2.6 16.67 3.42 16.87L3.42 28.74C3.43 28.82 3.45 28.9 3.47 28.98C3.44 29.1 3.42 29.23 3.42 29.35C3.42 33.61 20.74 33.74 22.71 33.74C24.68 33.74 42 33.62 42 29.35C42 29.23 41.98 29.1 41.95 28.98C41.97 28.9 41.99 28.82 42 28.74L42 16.87C43.06 16.64 43.99 16.02 44.62 15.13C45.25 14.24 45.53 13.15 45.39 12.08C45.26 11 44.73 10.01 43.91 9.3C43.08 8.59 42.03 8.21 40.94 8.24L40.94 8.24ZM20.43 4.39C20.42 3.93 20.55 3.48 20.8 3.1C21.04 2.71 21.4 2.41 21.82 2.22C22.24 2.04 22.7 1.99 23.15 2.07C23.61 2.15 24.02 2.37 24.35 2.69C24.68 3.01 24.9 3.42 25 3.87C25.09 4.31 25.05 4.78 24.87 5.21C24.7 5.63 24.41 5.99 24.03 6.25C23.65 6.51 23.2 6.64 22.74 6.64C22.14 6.65 21.55 6.41 21.12 5.99C20.69 5.57 20.44 5 20.43 4.39ZM13.1 20.12C13.31 20.19 13.54 20.2 13.75 20.14C13.97 20.09 14.16 19.97 14.31 19.8L22.71 10.04L31.12 19.8C31.26 19.97 31.46 20.09 31.67 20.14C31.88 20.2 32.11 20.19 32.32 20.12L39.82 17.49L39.82 27.09C35.1 25.04 24.25 24.96 22.71 24.96C21.18 24.96 10.33 25.04 5.61 27.09L5.61 17.49L13.1 20.12ZM22.71 31.6C14.3 31.6 8.94 30.63 6.71 29.81C6.37 29.69 6.05 29.54 5.75 29.35C6.44 28.84 8.7 28.16 12.48 27.67C19.27 26.9 26.14 26.9 32.93 27.67C36.7 28.16 38.97 28.84 39.66 29.35C39.36 29.54 39.04 29.69 38.7 29.81C36.48 30.63 31.12 31.6 22.71 31.6ZM2.18 12.62C2.17 12.16 2.3 11.71 2.54 11.33C2.79 10.94 3.14 10.64 3.56 10.45C3.98 10.27 4.45 10.22 4.9 10.3C5.35 10.38 5.77 10.6 6.1 10.92C6.42 11.24 6.65 11.65 6.74 12.1C6.83 12.55 6.79 13.01 6.62 13.44C6.45 13.86 6.15 14.22 5.77 14.48C5.39 14.74 4.94 14.87 4.49 14.87C3.88 14.88 3.3 14.65 2.87 14.22C2.43 13.8 2.19 13.23 2.18 12.62ZM40.94 14.87C40.49 14.86 40.06 14.72 39.7 14.47C39.34 14.21 39.06 13.86 38.9 13.45C38.73 13.03 38.7 12.58 38.79 12.15C38.88 11.72 39.1 11.32 39.42 11.01C39.74 10.7 40.14 10.5 40.57 10.41C41.01 10.33 41.46 10.38 41.86 10.55C42.27 10.72 42.62 11.01 42.86 11.38C43.11 11.75 43.24 12.18 43.24 12.62C43.23 13.23 42.99 13.8 42.55 14.22C42.12 14.64 41.54 14.88 40.94 14.87L40.94 14.87Z" fill="#F16D7F" fill-opacity="1.000000" fill-rule="nonzero"/>
</svg>
