<svg width="38.633057" height="38.572998" viewBox="0 0 38.6331 38.573" fill="none" xmlns="http://www.w3.org/2000/svg" xmlns:xlink="http://www.w3.org/1999/xlink">
	<desc>
			Created with Pixso.
	</desc>
	<defs/>
	<path id="Forma 1" d="M19.31 35.77L15.96 38.57L13.75 34.78L9.65 36.24L8.86 31.91L4.52 31.87L5.22 27.52L1.16 25.98L3.29 22.14L0 19.28L3.29 16.41L1.16 12.58L5.22 11.04L4.51 6.69L8.86 6.65L9.65 2.32L13.75 3.78L15.96 0L19.31 2.8L22.67 0L24.88 3.78L28.97 2.32L29.77 6.65L34.11 6.7L33.4 11.04L37.47 12.58L35.33 16.42L38.63 19.28L35.33 22.15L37.47 25.98L33.4 27.52L34.11 31.87L29.76 31.91L28.97 36.24L24.88 34.78L22.67 38.57L19.31 35.77ZM20.48 34.33L22.18 35.75L23.3 33.83L24.07 32.52L25.48 33.03L27.56 33.77L27.97 31.57L28.24 30.07L29.75 30.06L31.95 30.04L31.59 27.83L31.35 26.32L32.76 25.79L34.82 25L33.74 23.06L33 21.73L34.14 20.74L35.82 19.28L34.14 17.83L33 16.84L33.74 15.51L34.82 13.56L32.76 12.78L31.35 12.25L31.6 10.74L31.96 8.54L29.75 8.51L28.24 8.5L27.97 7L27.57 4.8L25.49 5.54L24.07 6.05L23.3 4.74L22.18 2.81L20.48 4.23L19.31 5.21L18.15 4.23L16.45 2.81L15.33 4.73L14.56 6.05L13.14 5.54L11.07 4.8L10.66 7L10.39 8.5L8.88 8.51L6.68 8.53L7.03 10.74L7.28 12.24L5.87 12.78L3.81 13.56L4.89 15.51L5.63 16.84L4.49 17.83L2.81 19.29L4.49 20.74L5.63 21.74L4.89 23.07L3.81 25.01L5.87 25.79L7.28 26.33L7.03 27.83L6.67 30.04L8.88 30.06L10.38 30.08L10.66 31.58L11.06 33.77L13.14 33.03L14.56 32.53L15.33 33.84L16.45 35.76L18.15 34.34L19.31 33.37L20.48 34.33ZM20.59 22.24C20.59 19.41 22.1 17.84 23.93 17.84C25.87 17.84 27.12 19.35 27.12 22.02C27.12 24.97 25.59 26.44 23.82 26.44C22.1 26.44 20.61 25.04 20.59 22.24ZM22.06 22.15C22.04 23.94 22.72 25.3 23.87 25.3C25.1 25.3 25.66 23.96 25.66 22.11C25.66 20.41 25.17 18.98 23.87 18.98C22.7 18.98 22.06 20.38 22.06 22.15L22.06 22.15ZM14.67 26.4L22.81 12.18L24 12.18L15.87 26.4L14.67 26.4ZM11.57 16.41C11.57 13.61 13.08 12.03 14.91 12.03C16.84 12.03 18.12 13.54 18.12 16.22C18.12 19.17 16.59 20.64 14.8 20.64C13.08 20.64 11.59 19.24 11.57 16.41L11.57 16.41ZM13.06 16.35C13.02 18.13 13.68 19.49 14.85 19.5C16.08 19.5 16.63 18.16 16.63 16.31C16.63 14.6 16.14 13.18 14.85 13.18C13.68 13.18 13.06 14.58 13.06 16.35L13.06 16.35Z" fill="#F16D7F" fill-opacity="1.000000" fill-rule="nonzero"/>
</svg>
