<svg width="43.467041" height="30.854248" viewBox="0 0 43.467 30.8542" fill="none" xmlns="http://www.w3.org/2000/svg" xmlns:xlink="http://www.w3.org/1999/xlink">
	<desc>
			Created with Pixso.
	</desc>
	<defs/>
	<path id="Forma 1" d="M29.23 26.32L14.28 26.32C14.08 27.58 13.43 28.73 12.46 29.56C11.49 30.39 10.25 30.85 8.97 30.85C7.69 30.85 6.45 30.39 5.48 29.56C4.51 28.73 3.86 27.58 3.66 26.32L1.79 26.32C1.31 26.31 0.85 26.12 0.52 25.78C0.18 25.44 -0.01 24.98 0 24.5L0 1.81C-0.01 1.33 0.18 0.87 0.52 0.53C0.85 0.19 1.31 0 1.79 0L26.48 0C26.95 0 27.41 0.19 27.75 0.53C28.08 0.87 28.27 1.33 28.27 1.81L28.27 3.65L35.15 3.65C35.23 3.65 35.3 3.66 35.38 3.68C37.6 3.87 38.72 5.03 39.9 7.02L43.34 12.91C43.42 13.05 43.46 13.21 43.46 13.37L43.46 25.41C43.46 25.65 43.37 25.88 43.2 26.05C43.03 26.22 42.8 26.31 42.56 26.32L39.85 26.32C39.65 27.58 39 28.73 38.03 29.56C37.05 30.39 35.82 30.85 34.54 30.85C33.26 30.85 32.02 30.39 31.05 29.56C30.08 28.73 29.43 27.58 29.23 26.32L29.23 26.32ZM30.95 25.41C30.95 26.12 31.17 26.81 31.57 27.39C31.97 27.98 32.53 28.43 33.19 28.7C33.85 28.96 34.57 29.03 35.26 28.89C35.95 28.74 36.59 28.4 37.09 27.89C37.59 27.39 37.92 26.75 38.06 26.06C38.19 25.36 38.12 24.64 37.85 23.99C37.58 23.33 37.12 22.78 36.53 22.38C35.94 21.99 35.25 21.78 34.54 21.78C33.58 21.79 32.67 22.17 31.99 22.85C31.32 23.53 30.94 24.45 30.95 25.41ZM5.38 25.41C5.39 26.12 5.6 26.81 6 27.39C6.4 27.98 6.96 28.43 7.62 28.7C8.28 28.96 9 29.03 9.69 28.89C10.38 28.74 11.02 28.4 11.52 27.89C12.02 27.39 12.36 26.75 12.49 26.06C12.63 25.36 12.55 24.64 12.28 23.99C12.01 23.33 11.55 22.78 10.96 22.38C10.37 21.99 9.68 21.78 8.97 21.78C8.01 21.79 7.1 22.17 6.42 22.85C5.75 23.53 5.37 24.45 5.38 25.41L5.38 25.41ZM39.84 24.5L41.67 24.5L41.67 19.07L39.02 19.07C38.9 19.07 38.79 19.05 38.68 19C38.57 18.96 38.47 18.89 38.39 18.81C38.3 18.72 38.24 18.62 38.19 18.51C38.15 18.4 38.12 18.29 38.12 18.17L38.12 16.38C38.12 15.69 38.39 15.02 38.87 14.51L32.71 14.51C32.63 14.51 32.56 14.5 32.48 14.48C31.8 14.42 31.17 14.11 30.71 13.6C30.25 13.1 30 12.44 30 11.76L30 7.21C30 7.1 30.02 6.98 30.06 6.87C30.11 6.76 30.17 6.66 30.26 6.57C30.34 6.49 30.44 6.42 30.55 6.38C30.66 6.33 30.78 6.31 30.89 6.31L37.16 6.31C36.83 6 36.43 5.76 36 5.62C35.57 5.47 35.12 5.42 34.67 5.46L28.27 5.46L28.27 24.5L29.23 24.5C29.43 23.24 30.07 22.08 31.05 21.25C32.02 20.42 33.26 19.97 34.54 19.97C35.82 19.97 37.05 20.42 38.03 21.25C39 22.08 39.64 23.24 39.84 24.5L39.84 24.5ZM14.28 24.5L26.47 24.5L26.47 1.81L1.79 1.81L1.79 24.5L3.66 24.5C3.86 23.24 4.51 22.09 5.48 21.26C6.45 20.43 7.69 19.97 8.97 19.97C10.25 19.97 11.49 20.43 12.46 21.26C13.43 22.09 14.08 23.24 14.28 24.5L14.28 24.5ZM39.92 16.39L39.92 17.27L41.67 17.27L41.67 15.48L40.82 15.48C40.58 15.48 40.35 15.58 40.18 15.75C40.01 15.92 39.92 16.15 39.92 16.38L39.92 16.39ZM31.79 11.76C31.79 12 31.89 12.24 32.06 12.41C32.23 12.58 32.46 12.68 32.71 12.68C32.77 12.68 32.83 12.69 32.89 12.7L41.13 12.7L38.45 8.13L31.79 8.13L31.79 11.76ZM31.88 25.41C31.88 24.7 32.16 24.02 32.65 23.52C33.15 23.02 33.83 22.73 34.54 22.73C34.78 22.73 35.01 22.82 35.18 22.99C35.35 23.16 35.44 23.39 35.44 23.63C35.44 23.87 35.35 24.1 35.18 24.27C35.01 24.45 34.78 24.54 34.54 24.54C34.36 24.54 34.2 24.59 34.05 24.68C33.91 24.78 33.79 24.91 33.73 25.07C33.66 25.23 33.64 25.41 33.67 25.57C33.71 25.74 33.79 25.9 33.91 26.02C34.03 26.14 34.19 26.23 34.36 26.26C34.53 26.3 34.7 26.28 34.86 26.21C35.02 26.15 35.16 26.04 35.25 25.89C35.35 25.75 35.4 25.58 35.4 25.41C35.4 25.17 35.49 24.94 35.66 24.78C35.83 24.61 36.06 24.51 36.3 24.51C36.53 24.51 36.76 24.61 36.93 24.78C37.1 24.94 37.19 25.17 37.19 25.41C37.19 26.11 36.91 26.79 36.41 27.29C35.92 27.79 35.24 28.07 34.54 28.07C33.83 28.07 33.15 27.79 32.66 27.29C32.16 26.79 31.88 26.11 31.88 25.41L31.88 25.41ZM6.31 25.41C6.31 24.7 6.59 24.02 7.09 23.52C7.58 23.02 8.26 22.73 8.97 22.73C9.21 22.73 9.44 22.82 9.61 22.99C9.78 23.16 9.87 23.39 9.87 23.63C9.87 23.87 9.78 24.1 9.61 24.27C9.44 24.45 9.21 24.54 8.97 24.54C8.8 24.54 8.63 24.59 8.48 24.68C8.34 24.78 8.23 24.91 8.16 25.07C8.09 25.23 8.07 25.41 8.11 25.57C8.14 25.74 8.22 25.9 8.34 26.02C8.46 26.14 8.62 26.23 8.79 26.26C8.96 26.3 9.13 26.28 9.29 26.21C9.45 26.15 9.59 26.04 9.68 25.89C9.78 25.75 9.83 25.58 9.83 25.41C9.83 25.17 9.92 24.94 10.09 24.78C10.26 24.61 10.49 24.51 10.73 24.51C10.96 24.51 11.19 24.61 11.36 24.78C11.53 24.94 11.62 25.17 11.62 25.41C11.62 26.11 11.34 26.79 10.85 27.29C10.35 27.79 9.67 28.07 8.97 28.07C8.26 28.07 7.59 27.79 7.09 27.29C6.59 26.79 6.31 26.11 6.31 25.41L6.31 25.41ZM4.52 5.46C4.28 5.46 4.05 5.37 3.88 5.2C3.71 5.03 3.61 4.8 3.61 4.56C3.61 4.32 3.71 4.09 3.88 3.92C4.05 3.75 4.28 3.65 4.52 3.65L23.74 3.65C23.98 3.65 24.21 3.75 24.38 3.92C24.55 4.09 24.65 4.32 24.65 4.56C24.65 4.8 24.55 5.03 24.38 5.2C24.21 5.37 23.98 5.46 23.74 5.46L4.52 5.46Z" fill="#F16D7F" fill-opacity="1.000000" fill-rule="nonzero"/>
</svg>
