<svg width="11.919189" height="15.597168" viewBox="0 0 11.9192 15.5972" fill="none" xmlns="http://www.w3.org/2000/svg" xmlns:xlink="http://www.w3.org/1999/xlink">
	<desc>
			Created with Pixso.
	</desc>
	<defs/>
	<path id="Vector" d="M6.33 0C3.14 0 0 2.13 0 5.59C0 7.79 1.22 9.04 1.97 9.04C2.28 9.04 2.45 8.18 2.45 7.94C2.45 7.64 1.72 7.03 1.72 5.82C1.72 3.3 3.62 1.52 6.08 1.52C8.19 1.52 9.75 2.73 9.75 4.95C9.75 6.61 9.09 9.73 6.95 9.73C6.18 9.73 5.52 9.16 5.52 8.36C5.52 7.18 6.34 6.03 6.34 4.81C6.34 2.75 3.42 3.12 3.42 5.62C3.42 6.14 3.49 6.73 3.72 7.2C3.29 9.06 2.42 11.83 2.42 13.74C2.42 14.33 2.5 14.91 2.56 15.5C2.66 15.62 2.61 15.61 2.77 15.55C4.33 13.39 4.28 12.97 4.99 10.15C5.37 10.88 6.36 11.27 7.14 11.27C10.43 11.27 11.91 8.04 11.91 5.12C11.91 2.02 9.25 0 6.33 0Z" fill="#000000" fill-opacity="1.000000" fill-rule="nonzero"/>
</svg>
